<?xml version="1.0" encoding="utf-8"?>
<!-- Generator: Adobe Illustrator 19.2.0, SVG Export Plug-In . SVG Version: 6.00 Build 0)  -->
<svg version="1.1" xmlns="http://www.w3.org/2000/svg" xmlns:xlink="http://www.w3.org/1999/xlink" x="0px" y="0px"
	 viewBox="0 0 200 200" style="enable-background:new 0 0 200 200;" xml:space="preserve">
<style type="text/css">
	.st0{fill:#333333;}
</style>
<g id="Layer_2">
</g>
<g id="Thanks_to_Pieter_Boels_x21_">
	<g>
		<path class="st0" d="M142.3,73.2c-22.8,0-41.6,18.3-58.6,33.5c-4.9-4.3-10.4-9.6-14.6-14.6c-0.4-0.5-1-0.6-1.3-0.4
			c-0.4,0.3-0.5,0.9-0.1,1.3c3.9,4.8,9.1,10.6,14,15.5c-9.1,8.6-23,19-34.2,19c-22.6,0-22.7-31.3-2.9-37.2c0.9-0.2,0.9-1.3,0-1
			c-25.9,6.4-24.5,42.9,3.4,42.9c13.3,0,25.5-8.9,37.8-19.4c13.3,12,30.1,21.8,51.7,21.8C192.3,134.6,190.7,73.2,142.3,73.2z
			 M137.1,129.9c-17.3-0.1-34.1-7.7-48.8-19.2c16.7-14.5,33.6-31.1,53.5-31.1C180.6,79.6,181.6,130.2,137.1,129.9z"/>
		<circle class="st0" cx="56.4" cy="86.1" r="5.6"/>
	</g>
</g>
</svg>
