<?xml version="1.0" encoding="utf-8"?>
<!-- Generator: Adobe Illustrator 19.2.0, SVG Export Plug-In . SVG Version: 6.00 Build 0)  -->
<svg version="1.1" xmlns="http://www.w3.org/2000/svg" xmlns:xlink="http://www.w3.org/1999/xlink" x="0px" y="0px"
	 viewBox="0 0 200 200" style="enable-background:new 0 0 200 200;" xml:space="preserve">
<style type="text/css">
	.st0{fill:#333333;}
</style>
<g id="Layer_2">
</g>
<g id="Layer_3">
	<g>
		<path class="st0" d="M145.7,76.1c-20.6,0-38.2,13.2-56.8,34.5c-6.3-5.8-15.5-14.2-16.6-15.2c-1.1-1-1.5,0.2-0.8,1
			s10.6,12,15.3,16.2c-3.9,4-15,18.6-31,18.6c-17.1,0-22.8-11.7-23.2-18.7c-0.3-5.6,0.9-11.1,6.4-15.5c2.7-2.2,5.4-3.2,7.4-3.9
			c2-0.6,3.3-1.2-0.2-0.8c-3.4,0.5-8.4,1.9-12.7,6.4c-2.3,2.4-5.3,6.4-5.3,14.6c0,9.6,8.9,22.3,26.2,22.3c10.6,0,19.1-2.1,35.2-20
			c9,7.9,23.3,23.2,54.4,23.2c25.9,0,34.8-14.4,34.8-32.9S163.8,76.1,145.7,76.1z M141.4,133.7c-24.6,0-49.5-20.6-49.5-20.6
			s17.3-24.8,40.3-30.3c22.9-5.5,37.8,7,37.8,22.3C169.9,120.3,163.2,133.7,141.4,133.7z"/>
		<circle class="st0" cx="60.5" cy="91" r="5.6"/>
	</g>
</g>
</svg>
