<?xml version="1.0" encoding="utf-8"?>
<!-- Generator: Adobe Illustrator 19.2.0, SVG Export Plug-In . SVG Version: 6.00 Build 0)  -->
<svg version="1.1" xmlns="http://www.w3.org/2000/svg" xmlns:xlink="http://www.w3.org/1999/xlink" x="0px" y="0px"
	 viewBox="0 0 400 200" style="enable-background:new 0 0 400 200;" xml:space="preserve">
<style type="text/css">
	.st0{fill:#333333;}
</style>
<g id="Layer_2">
	<g>
		<path class="st0" d="M86.5,122.9c-1.4,0-2.4,0.5-2.4,1.6c0,3.3,13.2,1.7,13.2,10.5c0,5.2-4.5,8.1-10.6,8.1
			c-4.2,0-8.3-1.2-11.3-3.6l2.6-5.3c2.9,2,6.1,3.1,8.9,3.1c1.5,0,2.7-0.5,2.7-1.5c0-3.4-13-1.7-13-10.4c0-5.3,4.4-8.1,10.3-8.1
			c3.6,0,7.3,1,10.5,2.9l-2.8,5.4C91.3,123.8,88.5,122.9,86.5,122.9z"/>
		<path class="st0" d="M106.4,117.5l5,17l4.9-17h7.9l5,17l5-17h8.1l-9.2,25.2h-8.2l-4.8-15.5l-4.8,15.5h-8.2l-9.2-25.2H106.4z"/>
		<path class="st0" d="M166.8,126.3v16.4h-8.1v-2.8c-1.6,2.1-4.2,3.2-7.6,3.2c-5.4,0-8.6-3.3-8.6-7.9c0-4.8,3.4-7.5,9.6-7.6h6.6
			v-0.3c0-2.4-1.6-3.8-4.8-3.8c-2.1,0-4.8,0.7-7.5,2l-2.3-5.6c4-1.8,7.6-2.7,11.7-2.7C162.7,117.2,166.7,120.5,166.8,126.3z
			 M158.6,134.1V132h-4.9c-2.3,0-3.5,0.8-3.5,2.6c0,1.7,1.3,2.8,3.4,2.8C156.1,137.4,158.1,136.1,158.6,134.1z"/>
		<path class="st0" d="M188.7,117.2v7.6c-4.6-0.5-7.7,1.6-8.1,5.1v12.8h-8.3v-25.2h8.3v4.2C182.3,118.8,185.2,117.2,188.7,117.2z"/>
		<path class="st0" d="M234.9,126.8v15.9h-8.3v-13.5c0-2.9-1.6-4.6-4.1-4.6c-2.9,0-4.7,2.4-4.7,5.7v12.4h-8.3v-13.5
			c0-2.9-1.6-4.6-4.1-4.6c-2.9,0-4.8,2.4-4.8,5.7v12.4h-8.2v-25.2h8.2v4.1c1.7-2.9,4.6-4.5,8.2-4.5c4.1,0,7.1,2.1,8.4,5.6
			c1.6-3.7,4.7-5.6,8.8-5.6C231.4,117.2,234.9,120.9,234.9,126.8z"/>
		<path class="st0" d="M247.1,139c0,2.4-1.7,4-4,4c-2.3,0-4-1.7-4-4c0-2.4,1.6-4,4-4C245.4,135,247.1,136.6,247.1,139z"/>
		<path class="st0" d="M263.3,124.1c-3,0-5,2.5-5,6.1c0,3.7,2,6.1,5,6.1c2.2,0,3.9-0.9,4.9-2.8l6.1,3.5c-2,3.9-6.1,6-11.4,6
			c-7.8,0-12.9-5.1-12.9-12.7c0-7.8,5.2-13,13-13c5.1,0,9.1,2.2,11.3,6l-6,3.5C267.1,125,265.4,124.1,263.3,124.1z"/>
		<path class="st0" d="M286.3,117.5v25.2h-8.2v-25.2H286.3z M286,110.4c0,2.2-1.6,3.8-3.8,3.8c-2.2,0-3.8-1.6-3.8-3.8
			c0-2.2,1.6-3.8,3.8-3.8C284.4,106.6,286,108.2,286,110.4z"/>
		<path class="st0" d="M309,141.4c-1.8,1.1-4.3,1.7-6.8,1.7c-4.9,0-8.4-2.8-8.4-8v-10.8h-3.5v-5.5h3.5v-7h8.2v7h6.5v5.5H302v9.5
			c0,1.9,0.8,2.7,2.3,2.7c0.8,0,1.9-0.3,3.1-0.8L309,141.4z"/>
		<path class="st0" d="M316.7,152.1c-2.8,0-5.2-0.8-7.4-2.6l3.4-5.7c1.2,1,2.1,1.4,3.3,1.4c1.4,0,2.4-0.7,3-1.9l0.6-1.2l-10.4-24.6
			h8.5l6,16.4l5.3-16.4h8.2l-10.8,27.6C324.6,149.8,321.4,152.1,316.7,152.1z"/>
	</g>
	<g>
		<g>
			<path class="st0" d="M231.3,55.3c-9.8,0-18.2,6.3-27,16.4c-3-2.8-7.4-6.8-7.9-7.3c-0.5-0.5-0.7,0.1-0.4,0.5
				c0.4,0.4,5.1,5.7,7.3,7.7c-1.8,1.9-7.2,8.9-14.7,8.9c-8.1,0-10.9-5.6-11-8.9c-0.1-2.7,0.4-5.3,3-7.4c1.3-1,2.6-1.5,3.5-1.8
				c1-0.3,1.6-0.6-0.1-0.4c-1.6,0.2-4,0.9-6.1,3c-1.1,1.2-2.5,3.1-2.5,7c0,4.6,4.2,10.6,12.5,10.6c5.1,0,9.1-1,16.8-9.5
				c4.3,3.8,11.1,11.1,25.9,11.1c12.3,0,16.6-6.9,16.6-15.6S239.9,55.3,231.3,55.3z M229.2,82.7c-11.7,0-23.6-9.8-23.6-9.8
				s8.3-11.8,19.2-14.4c10.9-2.6,18,3.4,18,10.6C242.8,76.4,239.6,82.7,229.2,82.7z"/>
			<circle class="st0" cx="190.7" cy="62.4" r="2.7"/>
		</g>
	</g>
</g>
<g id="Layer_3">
</g>
</svg>
